<svg width="418" height="138" viewBox="0 0 418 138" xmlns="http://www.w3.org/2000/svg">
<path d="M70.0502 3.67022C103.14 16.1802 113.83 57.0202 91.7902 84.5302C78.5836 101.01 65.5336 117.504 52.6402 134.01C52.5916 134.073 52.5294 134.123 52.4584 134.158C52.3873 134.192 52.3093 134.21 52.2302 134.21C52.1512 134.21 52.0732 134.192 52.0021 134.158C51.9311 134.123 51.8689 134.073 51.8202 134.01C41.4469 120.85 31.0769 107.707 20.7102 94.5802C17.5502 90.5702 9.58024 82.3002 6.46024 75.8102C-3.93976 54.2402 -0.139763 28.8602 18.1602 13.0802C32.5102 0.720226 52.1602 -3.09978 70.0502 3.67022ZM77.5502 52.9802C79.4902 53.3802 80.8602 53.2002 81.6602 52.4402C82.9402 51.2069 82.9969 50.0402 81.8302 48.9402C72.8036 40.4802 63.9536 32.2002 55.2802 24.1002C54.5051 23.3767 53.4856 22.9725 52.4265 22.9688C51.3674 22.9651 50.347 23.3621 49.5702 24.0802L22.2602 49.1902C21.9274 49.4954 21.7244 49.917 21.6928 50.3687C21.6612 50.8205 21.8034 51.2682 22.0902 51.6202C23.2902 53.0802 24.8269 53.5502 26.7002 53.0302C26.8114 52.9995 26.9281 52.9948 27.0414 53.0165C27.1546 53.0382 27.2614 53.0857 27.3533 53.1553C27.4452 53.225 27.5198 53.3149 27.5713 53.4181C27.6228 53.5212 27.6498 53.6349 27.6502 53.7502V78.8002C27.6502 79.3846 27.8817 79.9452 28.294 80.3594C28.7063 80.7736 29.2658 81.0076 29.8502 81.0102L44.4102 81.0302C44.7102 81.0369 44.8602 80.8902 44.8602 80.5902V63.9702C44.8602 63.7181 44.9099 63.4684 45.0064 63.2355C45.1029 63.0025 45.2443 62.7909 45.4226 62.6126C45.6009 62.4343 45.8125 62.2929 46.0455 62.1964C46.2784 62.0999 46.5281 62.0502 46.7802 62.0502L57.5702 62.0902C58.0291 62.0902 58.4691 62.2725 58.7935 62.5969C59.118 62.9214 59.3002 63.3614 59.3002 63.8202L59.3202 80.5502C59.3202 80.6775 59.3708 80.7996 59.4608 80.8896C59.5508 80.9796 59.6729 81.0302 59.8002 81.0302L74.1902 81.0202C74.9116 81.0202 75.6035 80.7336 76.1136 80.2235C76.6237 79.7134 76.9102 79.0216 76.9102 78.3002V53.5002C76.9102 53.0669 77.1236 52.8936 77.5502 52.9802Z" fill="black"/>
<path d="M134.812 3.2635L133.872 3.25858C133.584 3.25708 133.35 3.48866 133.349 3.77585L132.651 136.994C132.65 137.281 132.881 137.515 133.169 137.517L134.109 137.522C134.396 137.523 134.63 137.292 134.631 137.004L135.329 3.78622C135.33 3.49903 135.099 3.26501 134.812 3.2635Z" fill="black"/>
<path d="M221.68 43.5202C224.767 34.2402 227.793 24.9002 230.76 15.5002C231.267 13.9068 231.167 12.3768 230.46 10.9102C230.398 10.7822 230.308 10.67 230.197 10.5817C230.087 10.4934 229.958 10.4314 229.82 10.4001L225.86 9.53015C225.62 9.47682 225.5 9.32349 225.5 9.07016L225.51 8.25015C225.51 7.85682 225.71 7.66016 226.11 7.66016H239.52C239.713 7.66343 239.9 7.73092 240.05 7.85198C240.201 7.97304 240.307 8.14078 240.352 8.32875C240.396 8.51672 240.377 8.71423 240.297 8.89012C240.217 9.06601 240.081 9.21027 239.91 9.30016C237.143 10.6935 235.443 12.3468 234.81 14.2601C229.377 30.5535 224.02 46.6168 218.74 62.4501C218.647 62.7251 218.471 62.9638 218.237 63.1336C218.002 63.3033 217.719 63.3956 217.429 63.3978C217.138 63.4 216.853 63.312 216.613 63.1458C216.374 62.9797 216.191 62.7436 216.09 62.4702L202.93 25.7601C202.703 25.1335 202.47 25.1302 202.23 25.7502L187.91 62.4301C187.797 62.7161 187.599 62.9612 187.343 63.1326C187.088 63.304 186.786 63.3935 186.48 63.3891C186.173 63.3848 185.875 63.2868 185.627 63.1082C185.379 62.9297 185.191 62.6791 185.09 62.3902C179.83 47.4035 174.49 32.2535 169.07 16.9402C167.62 12.8402 167.3 10.4501 163.31 9.68015C162.937 9.60681 162.75 9.37683 162.75 8.99016L162.76 8.20015C162.76 8.12924 162.774 8.05902 162.801 7.9935C162.828 7.92799 162.868 7.86846 162.918 7.81831C162.968 7.76817 163.028 7.7284 163.093 7.70126C163.159 7.67413 163.229 7.66016 163.3 7.66016H185.78C186.187 7.66016 186.4 7.86349 186.42 8.27016L186.45 8.95015C186.463 9.31682 186.293 9.53682 185.94 9.61015C183.01 10.2002 180.12 10.5502 181.51 14.7702C184.75 24.6302 188 34.4535 191.26 44.2402C191.276 44.2939 191.309 44.3413 191.353 44.3756C191.398 44.41 191.452 44.4296 191.508 44.4318C191.564 44.434 191.619 44.4187 191.666 44.3879C191.713 44.3571 191.75 44.3125 191.77 44.2601L200.79 20.7202C200.919 20.3921 200.922 20.0258 200.8 19.6902C199.33 15.5502 198.62 9.72015 192.94 9.75015C192.858 9.75034 192.777 9.73377 192.702 9.70149C192.627 9.66922 192.56 9.62196 192.504 9.5627C192.449 9.50344 192.406 9.43349 192.38 9.3573C192.353 9.28111 192.343 9.20034 192.35 9.12015L192.43 8.07016C192.438 7.95874 192.487 7.85438 192.569 7.77825C192.651 7.70211 192.758 7.6599 192.87 7.66016H217.06C217.333 7.66016 217.47 7.79348 217.47 8.06015L217.48 9.15015C217.487 9.58348 217.273 9.78349 216.84 9.75015C215.147 9.62349 213.59 10.0068 212.17 10.9001C212.017 10.9974 211.892 11.1321 211.807 11.2914C211.721 11.4507 211.677 11.6293 211.68 11.8102C211.707 13.0702 211.99 14.5502 212.53 16.2502C215.437 25.3902 218.353 34.4802 221.28 43.5202C221.294 43.5625 221.32 43.5995 221.356 43.6257C221.392 43.652 221.436 43.6661 221.48 43.6661C221.525 43.6661 221.568 43.652 221.604 43.6257C221.64 43.5995 221.666 43.5625 221.68 43.5202Z" fill="black"/>
<path d="M301.87 36.0002C306.964 43.2736 312.077 50.5302 317.21 57.7702C318.077 58.9969 319.137 59.7302 320.39 59.9702C320.575 60.0034 320.741 60.1011 320.86 60.2458C320.979 60.3905 321.043 60.5728 321.04 60.7602L321.03 61.4902C321.024 61.8302 320.85 62.0002 320.51 62.0002H305.05C304.704 62.0002 304.434 61.8569 304.24 61.5702L288.01 37.0202C287.866 36.7992 287.654 36.6304 287.407 36.5388C287.159 36.4473 286.889 36.4378 286.635 36.5118C286.382 36.5858 286.159 36.7393 286 36.9497C285.84 37.1602 285.753 37.4163 285.75 37.6802C285.657 43.1669 285.677 48.9369 285.81 54.9902C285.89 58.8202 288.7 59.4102 292.18 59.8702C292.357 59.8943 292.519 59.9815 292.637 60.1156C292.754 60.2498 292.819 60.4219 292.82 60.6002V61.3402C292.82 61.5153 292.751 61.6831 292.627 61.8069C292.503 61.9307 292.335 62.0002 292.16 62.0002H266.07C265.604 62.0002 265.41 61.7702 265.49 61.3102L265.66 60.2602C265.692 60.07 265.795 59.8987 265.949 59.7802C266.102 59.6617 266.296 59.6046 266.49 59.6202C270.53 59.9402 272.59 58.0802 272.67 54.0402C272.784 48.0202 272.78 35.6936 272.66 17.0602C272.63 12.4902 271.42 9.37023 266.25 9.91023C265.864 9.95023 265.657 9.7769 265.63 9.39023L265.55 8.37022C265.517 7.90356 265.737 7.6669 266.21 7.66023C276.057 7.59357 285.9 7.6969 295.74 7.97023C304.28 8.21023 313.57 11.6802 314.1 21.2402C314.56 29.4102 309.1 33.0002 302.09 35.3302C301.717 35.4569 301.644 35.6802 301.87 36.0002ZM300.4 21.8302C300.37 13.7802 296.45 9.17022 288.01 10.6202C286.57 10.8669 285.824 11.5769 285.77 12.7502C285.637 15.6569 285.637 22.6436 285.77 33.7102C285.77 34.0169 285.924 34.1736 286.23 34.1802C295.86 34.4102 300.44 31.9902 300.4 21.8302Z" fill="black"/>
<path d="M398.01 28.9902C397.937 37.3302 397.937 45.6669 398.01 54.0002C398.017 54.3335 398.203 55.0102 398.57 56.0302C398.666 56.3072 398.866 56.542 399.13 56.6902C400.77 57.6302 402.257 57.4235 403.59 56.0702C403.81 55.8435 403.96 55.5769 404.04 55.2702C405.05 51.0902 408.83 48.4302 413.04 49.8902C419.23 52.0302 419.04 61.0402 412.75 62.7902C409.303 63.7502 406.657 62.6169 404.81 59.3902C404.63 59.0769 404.413 59.0502 404.16 59.3102C400.667 62.9302 396.637 63.9602 392.07 62.4002C386.64 60.5502 386.8 55.9802 386.79 50.3702C386.777 43.2569 386.77 36.1402 386.77 29.0202C386.77 28.6602 386.593 28.4802 386.24 28.4802H383.69C383.421 28.4799 383.158 28.3972 382.937 28.2433C382.716 28.0893 382.547 27.8715 382.454 27.619C382.36 27.3665 382.346 27.0914 382.413 26.8307C382.481 26.5699 382.626 26.336 382.83 26.1602C387.817 21.9002 392.123 17.0335 395.75 11.5602C395.896 11.3451 396.106 11.1821 396.351 11.095C396.596 11.0079 396.862 11.0012 397.111 11.076C397.36 11.1508 397.578 11.3031 397.735 11.5107C397.891 11.7183 397.977 11.9704 397.98 12.2302V24.3302C397.98 24.7369 398.18 24.9402 398.58 24.9402L404.98 24.9502C405.327 24.9502 405.5 25.1269 405.5 25.4802V27.9902C405.5 28.3169 405.337 28.4802 405.01 28.4802L398.52 28.4902C398.187 28.4902 398.017 28.6569 398.01 28.9902Z" fill="black"/>
<path d="M248.51 42.7698C248.39 46.0698 248.997 49.1698 250.33 52.0698C253.91 59.8798 262.19 58.2998 266.54 52.4098C266.787 52.0832 267.09 52.0132 267.45 52.1998L268.36 52.6798C268.78 52.8931 268.853 53.1932 268.58 53.5798C263.51 60.6898 257.39 65.1698 248.48 62.4798C236.28 58.7898 234.46 42.6698 239.08 32.8598C242.66 25.2498 252.41 21.6698 260.06 25.3998C266.01 28.2998 268.42 35.4298 268.45 41.7998C268.45 42.1132 268.293 42.2698 267.98 42.2698L249.02 42.2798C248.693 42.2798 248.523 42.4432 248.51 42.7698ZM248.36 39.3398L258.22 39.3998C258.279 39.3998 258.338 39.3882 258.392 39.3656C258.447 39.343 258.496 39.3098 258.538 39.268C258.58 39.2262 258.613 39.1766 258.636 39.122C258.658 39.0674 258.67 39.0089 258.67 38.9498L258.68 36.1298C258.687 34.8672 258.578 33.6162 258.358 32.4483C258.138 31.2804 257.812 30.2184 257.399 29.3232C256.985 28.4279 256.493 27.7169 255.949 27.2307C255.405 26.7446 254.821 26.4928 254.23 26.4898H252.47C251.277 26.4837 250.128 27.4894 249.275 29.2858C248.421 31.0822 247.934 33.5223 247.92 36.0698L247.91 38.8898C247.91 39.0092 247.957 39.1236 248.042 39.208C248.126 39.2924 248.241 39.3398 248.36 39.3398Z" fill="black"/>
<path d="M328.27 42.7501C328.08 47.7601 329.59 54.7701 334.69 56.8001C339.26 58.6101 343.25 56.1401 346.35 52.4301C346.623 52.1035 346.947 52.0435 347.32 52.2501L348.19 52.7301C348.543 52.9235 348.607 53.1868 348.38 53.5201C343.29 61.1901 335.31 65.9601 326.26 61.6701C312.73 55.2501 313.21 30.4301 327.29 25.0401C334.34 22.3501 342.45 24.4101 345.83 31.6301C347.33 34.8435 348.14 38.2201 348.26 41.7601C348.273 42.1068 348.107 42.2801 347.76 42.2801L328.77 42.2701C328.45 42.2701 328.283 42.4301 328.27 42.7501ZM328.03 39.2701L338.11 39.3901C338.176 39.3901 338.24 39.3638 338.287 39.3169C338.334 39.27 338.36 39.2064 338.36 39.1401L338.42 34.9801C338.446 32.7499 337.985 30.6056 337.137 29.0191C336.29 27.4325 335.125 26.5337 333.9 26.5201L332.56 26.5001C331.953 26.4933 331.35 26.7042 330.784 27.1206C330.219 27.5371 329.702 28.151 329.264 28.9274C328.825 29.7037 328.474 30.6272 328.23 31.6452C327.985 32.6631 327.853 33.7556 327.84 34.8601L327.79 39.0101C327.789 39.043 327.794 39.0758 327.805 39.1066C327.817 39.1374 327.834 39.1658 327.856 39.1899C327.878 39.2141 327.905 39.2336 327.935 39.2473C327.965 39.2611 327.997 39.2689 328.03 39.2701Z" fill="black"/>
<path d="M360.8 30.1798C367.54 20.6198 382.62 21.9498 382.63 35.4998C382.63 42.4465 382.657 49.3898 382.71 56.3298C382.72 58.6498 383.71 59.8698 385.99 60.0098C386.31 60.0298 386.517 60.1965 386.61 60.5098C386.91 61.4965 386.707 61.9898 386 61.9898C380.087 62.0098 374.177 62.0098 368.27 61.9898C367.857 61.9898 367.65 61.7831 367.65 61.3698V60.6098C367.65 60.2165 367.847 59.9898 368.24 59.9298C370.26 59.6231 371.32 58.5665 371.42 56.7598C371.687 51.7331 371.667 44.4965 371.36 35.0498C371.08 26.6098 364.35 28.8998 360.73 33.2398C360.517 33.4931 360.41 33.7831 360.41 34.1098C360.337 41.1565 360.337 48.2031 360.41 55.2498C360.443 58.0631 361.573 59.6765 363.8 60.0898C364.193 60.1631 364.387 60.4031 364.38 60.8098L364.36 61.4498C364.347 61.8165 364.16 61.9998 363.8 61.9998H345.45C345.303 61.9998 345.162 61.9422 345.058 61.8393C344.953 61.7365 344.893 61.5966 344.89 61.4498L344.88 60.8198C344.873 60.3331 345.11 60.0531 345.59 59.9798C347.997 59.6131 349.207 57.8731 349.22 54.7598C349.28 42.2331 349.28 34.2298 349.22 30.7498C349.18 28.4231 347.953 27.1931 345.54 27.0598C345.379 27.0497 345.228 26.9792 345.117 26.8624C345.005 26.7456 344.942 26.5911 344.94 26.4298L344.92 25.5098C344.919 25.4354 344.932 25.3616 344.96 25.2925C344.989 25.2234 345.03 25.1605 345.083 25.1074C345.136 25.0543 345.2 25.0122 345.27 24.9834C345.339 24.9546 345.414 24.9398 345.49 24.9398L359.74 24.9498C360.093 24.9498 360.27 25.1298 360.27 25.4898V30.0098C360.263 30.6298 360.44 30.6865 360.8 30.1798Z" fill="black"/>
<path d="M186.31 104.12L189.99 104.11C190.091 104.109 190.188 104.148 190.26 104.218C190.332 104.288 190.373 104.384 190.375 104.485C190.376 104.586 190.337 104.683 190.267 104.755C190.197 104.828 190.101 104.869 190 104.87L185.4 104.99C185.321 104.992 185.244 104.977 185.171 104.948C185.098 104.919 185.032 104.876 184.976 104.821C184.92 104.766 184.876 104.701 184.846 104.628C184.815 104.556 184.8 104.479 184.8 104.4L184.85 96.8502C184.85 96.817 184.856 96.784 184.87 96.7535C184.883 96.723 184.903 96.6956 184.927 96.673C184.951 96.6505 184.98 96.6332 185.012 96.6224C185.043 96.6116 185.077 96.6074 185.11 96.6102L185.38 96.6202C185.62 96.6402 185.74 96.7702 185.74 97.0102L185.75 103.56C185.75 103.709 185.809 103.851 185.914 103.956C186.019 104.061 186.161 104.12 186.31 104.12Z" fill="black"/>
<path d="M194.12 103.92C199.16 106.04 197.83 99.1499 198.16 96.9499C198.169 96.875 198.205 96.8058 198.26 96.7545C198.315 96.7032 198.387 96.6731 198.463 96.6695C198.538 96.6659 198.612 96.6891 198.672 96.7349C198.732 96.7807 198.774 96.8463 198.79 96.9199C199.49 99.9299 199.41 106.29 194.34 104.89C191.34 104.06 191.87 99.2399 192.18 96.9599C192.213 96.7266 192.347 96.6132 192.58 96.6199C192.807 96.6266 192.92 96.7199 192.92 96.8999C192.913 98.8266 192.95 100.647 193.03 102.36C193.048 102.696 193.159 103.02 193.352 103.296C193.545 103.571 193.811 103.788 194.12 103.92Z" fill="black"/>
<path d="M203.43 101.95L201.51 104.69C201.35 104.916 201.133 104.99 200.86 104.91L200.54 104.81C200.407 104.77 200.383 104.693 200.47 104.58L202.99 101.22C203.223 100.9 203.23 100.58 203.01 100.26L200.62 96.8398C200.603 96.8166 200.593 96.7894 200.59 96.7608C200.587 96.7322 200.592 96.7031 200.604 96.6762C200.616 96.6492 200.635 96.6253 200.659 96.6068C200.682 96.5882 200.71 96.5755 200.74 96.5698C200.853 96.5498 200.97 96.5298 201.09 96.5098C201.183 96.4898 201.26 96.5165 201.32 96.5898L203.63 99.6398C203.797 99.8598 203.967 99.8631 204.14 99.6498L206.76 96.4598C206.809 96.3962 206.882 96.3546 206.961 96.3443C207.041 96.334 207.122 96.3558 207.185 96.4048C207.249 96.4539 207.29 96.5262 207.301 96.6059C207.311 96.6856 207.289 96.7662 207.24 96.8298L204.75 100.32C204.674 100.429 204.634 100.558 204.634 100.689C204.634 100.819 204.674 100.946 204.75 101.05L207.16 104.35C207.433 104.73 207.337 104.92 206.87 104.92C206.523 104.92 206.24 104.696 206.02 104.25C205.627 103.45 205.013 102.66 204.18 101.88C203.9 101.613 203.65 101.637 203.43 101.95Z" fill="black"/>
<path d="M211.47 103.98C212.91 104.527 214.08 104.22 214.98 103.06C215.142 102.852 215.234 102.596 215.24 102.33L215.32 96.69C215.322 96.6152 215.351 96.5437 215.401 96.4885C215.451 96.4333 215.52 96.3982 215.594 96.3897C215.669 96.3812 215.744 96.3998 215.805 96.4421C215.867 96.4844 215.911 96.5476 215.93 96.62C216.403 98.5333 216.437 100.387 216.03 102.18C215.33 105.24 212.5 105.9 210.17 104.1C209.893 103.887 209.701 103.582 209.63 103.24C209.197 101.153 209.11 99.0533 209.37 96.94C209.389 96.8437 209.442 96.7575 209.52 96.6971C209.597 96.6367 209.694 96.6062 209.792 96.611C209.89 96.6159 209.983 96.6558 210.055 96.7235C210.126 96.7912 210.17 96.8822 210.18 96.98L210.24 102.23C210.246 102.61 210.366 102.98 210.585 103.292C210.804 103.604 211.113 103.844 211.47 103.98Z" fill="black"/>
<path d="M219.72 103.06L219.83 104.53C219.835 104.605 219.82 104.68 219.786 104.746C219.751 104.813 219.699 104.869 219.635 104.908C219.571 104.947 219.498 104.968 219.423 104.968C219.348 104.969 219.274 104.949 219.21 104.91L218.91 104.73C218.843 104.69 218.81 104.63 218.81 104.55V97.13C218.81 96.6634 219.04 96.4533 219.5 96.5L224.13 97C224.245 97.0124 224.355 97.0524 224.453 97.1167C224.55 97.181 224.631 97.2678 224.69 97.37C225.81 99.3633 225.567 100.903 223.96 101.99C223.667 102.19 223.63 102.43 223.85 102.71L225.1 104.26C225.333 104.553 225.27 104.75 224.91 104.85C224.497 104.963 224.203 104.807 224.03 104.38C223.33 102.58 222.027 101.95 220.12 102.49C219.827 102.57 219.693 102.76 219.72 103.06ZM219.72 97.95V100.99C219.72 101.144 219.781 101.291 219.89 101.4C219.999 101.509 220.146 101.57 220.3 101.57H222.15C222.773 101.57 223.371 101.367 223.812 101.005C224.252 100.643 224.5 100.152 224.5 99.64V99.3C224.5 98.7881 224.252 98.2972 223.812 97.9353C223.371 97.5733 222.773 97.37 222.15 97.37H220.3C220.146 97.37 219.999 97.4311 219.89 97.5399C219.781 97.6487 219.72 97.7962 219.72 97.95Z" fill="black"/>
<path d="M230.18 100.66C230.92 99.6267 231.707 98.3467 232.54 96.82C232.66 96.6 232.823 96.5333 233.03 96.62C233.29 96.72 233.353 96.89 233.22 97.13C231.73 99.78 230.2 101.26 230.21 104.48C230.211 104.538 230.199 104.595 230.175 104.647C230.151 104.7 230.115 104.747 230.07 104.784C230.025 104.821 229.972 104.848 229.915 104.863C229.858 104.878 229.798 104.88 229.74 104.87C229.66 104.85 229.577 104.833 229.49 104.82C229.421 104.803 229.361 104.762 229.322 104.704C229.283 104.647 229.268 104.577 229.28 104.51C229.75 101.18 227.5 99.76 226.35 96.94C226.327 96.8681 226.33 96.7905 226.359 96.7208C226.388 96.6512 226.441 96.594 226.508 96.5593C226.575 96.5246 226.652 96.5147 226.725 96.5313C226.799 96.5479 226.864 96.5899 226.91 96.65L229.43 100.63C229.67 101.01 229.92 101.02 230.18 100.66Z" fill="black"/>
<path d="M239.06 103.34L238.84 104.82C238.819 104.917 238.764 105.003 238.685 105.062C238.605 105.121 238.507 105.15 238.409 105.143C238.31 105.135 238.217 105.093 238.148 105.022C238.078 104.952 238.036 104.859 238.03 104.76V97.2999C238.03 96.9466 238.203 96.7399 238.55 96.6799C240.66 96.3099 244.72 96.3499 244.47 99.6299C244.33 101.39 242.816 102.363 239.93 102.55C239.43 102.583 239.14 102.847 239.06 103.34ZM238.98 97.76L238.95 101.18C238.95 101.282 238.989 101.379 239.06 101.452C239.131 101.525 239.228 101.567 239.33 101.57L241.28 101.59C241.603 101.593 241.924 101.546 242.224 101.451C242.524 101.356 242.797 101.216 243.027 101.037C243.257 100.859 243.441 100.646 243.566 100.412C243.692 100.177 243.758 99.9251 243.76 99.67V99.35C243.764 98.8361 243.509 98.3411 243.052 97.9736C242.594 97.6062 241.971 97.3963 241.32 97.39L239.37 97.3699C239.266 97.3699 239.167 97.411 239.094 97.4842C239.021 97.5573 238.98 97.6565 238.98 97.76Z" fill="black"/>
<path d="M247.71 103.23L247.84 104.58C247.886 105.073 247.696 105.193 247.27 104.94L247.01 104.78C246.87 104.693 246.8 104.566 246.8 104.4L246.81 97.2498C246.81 96.9165 246.976 96.7265 247.31 96.6798C249.95 96.3298 253.87 96.4798 253.31 100.34C253.256 100.673 253.096 100.943 252.83 101.15C251.463 102.216 251.613 103.253 253.28 104.26C253.35 104.301 253.405 104.365 253.434 104.441C253.464 104.517 253.467 104.601 253.442 104.679C253.418 104.757 253.368 104.824 253.3 104.869C253.232 104.915 253.151 104.936 253.07 104.93L252.58 104.9C252.326 104.88 252.163 104.746 252.09 104.5C251.516 102.64 250.24 101.96 248.26 102.46C247.86 102.56 247.676 102.816 247.71 103.23ZM247.72 97.9498V101.01C247.72 101.164 247.781 101.311 247.89 101.42C247.998 101.529 248.146 101.59 248.3 101.59H250.17C250.788 101.59 251.38 101.385 251.817 101.022C252.254 100.658 252.5 100.164 252.5 99.6498V99.3098C252.5 98.7953 252.254 98.3018 251.817 97.938C251.38 97.5742 250.788 97.3698 250.17 97.3698H248.3C248.146 97.3698 247.998 97.4309 247.89 97.5397C247.781 97.6485 247.72 97.796 247.72 97.9498Z" fill="black"/>
<path d="M263.34 100.81C263.34 101.958 262.884 103.06 262.072 103.872C261.26 104.684 260.159 105.14 259.01 105.14C257.862 105.14 256.76 104.684 255.948 103.872C255.136 103.06 254.68 101.958 254.68 100.81C254.68 99.6616 255.136 98.5602 255.948 97.7482C256.76 96.9362 257.862 96.48 259.01 96.48C260.159 96.48 261.26 96.9362 262.072 97.7482C262.884 98.5602 263.34 99.6616 263.34 100.81ZM262.51 100.8C262.51 99.8744 262.142 98.9867 261.488 98.3322C260.833 97.6777 259.946 97.31 259.02 97.31C258.095 97.31 257.207 97.6777 256.552 98.3322C255.898 98.9867 255.53 99.8744 255.53 100.8C255.53 101.726 255.898 102.613 256.552 103.268C257.207 103.922 258.095 104.29 259.02 104.29C259.946 104.29 260.833 103.922 261.488 103.268C262.142 102.613 262.51 101.726 262.51 100.8Z" fill="black"/>
<path d="M266.36 102.87L266.06 104.77C266.055 104.82 266.041 104.868 266.018 104.913C265.994 104.957 265.962 104.996 265.924 105.028C265.885 105.06 265.841 105.085 265.793 105.099C265.745 105.114 265.695 105.12 265.645 105.115C265.595 105.11 265.547 105.096 265.502 105.073C265.458 105.049 265.419 105.017 265.386 104.979C265.354 104.94 265.33 104.896 265.315 104.848C265.301 104.8 265.295 104.75 265.3 104.7L265.34 97.2999C265.347 96.9466 265.523 96.7366 265.87 96.67C267.937 96.27 269.783 96.66 271.41 97.84C271.586 97.9666 271.73 98.1333 271.829 98.3263C271.928 98.5193 271.98 98.733 271.98 98.95C271.97 102.6 269.21 102.14 266.78 102.46C266.54 102.493 266.4 102.63 266.36 102.87ZM266.24 97.9599L266.26 101C266.26 101.154 266.321 101.301 266.43 101.41C266.539 101.519 266.686 101.58 266.84 101.58L268.54 101.57C269.197 101.567 269.827 101.362 270.29 101C270.753 100.638 271.012 100.149 271.01 99.64V99.28C271.009 99.0277 270.944 98.7782 270.818 98.5457C270.692 98.3131 270.508 98.1022 270.277 97.9248C270.046 97.7474 269.772 97.6071 269.47 97.5119C269.169 97.4167 268.846 97.3685 268.52 97.3699L266.82 97.38C266.666 97.38 266.519 97.441 266.41 97.5498C266.301 97.6586 266.24 97.8061 266.24 97.9599Z" fill="black"/>
<path d="M275.54 104.1L279.93 104.14C280.025 104.14 280.117 104.178 280.184 104.245C280.252 104.313 280.29 104.404 280.29 104.5C280.29 104.595 280.252 104.687 280.184 104.754C280.117 104.822 280.025 104.86 279.93 104.86L274.65 105C274.569 105.001 274.488 104.986 274.413 104.956C274.338 104.926 274.27 104.882 274.212 104.825C274.154 104.768 274.108 104.7 274.077 104.626C274.046 104.551 274.03 104.471 274.03 104.39L274.01 97.2299C274.01 97.0655 274.075 96.9077 274.191 96.7915C274.308 96.6752 274.465 96.6099 274.63 96.6099L279.5 96.6499C279.539 96.6518 279.578 96.6624 279.613 96.6808C279.648 96.6992 279.678 96.725 279.702 96.7565C279.726 96.788 279.742 96.8243 279.751 96.8629C279.759 96.9015 279.759 96.9414 279.75 96.9799C279.73 97.0732 279.71 97.1632 279.69 97.2499C279.663 97.3499 279.6 97.3999 279.5 97.3999L275.48 97.3699C275.08 97.3699 274.886 97.5665 274.9 97.9599L274.96 99.7799C274.962 99.9286 275.023 100.071 275.129 100.177C275.235 100.283 275.379 100.345 275.53 100.35L279.36 100.47C279.441 100.467 279.518 100.497 279.576 100.552C279.633 100.607 279.665 100.684 279.665 100.765C279.665 100.846 279.633 100.924 279.576 100.983C279.518 101.043 279.441 101.077 279.36 101.08L275.52 101.21C275.146 101.223 274.96 101.417 274.96 101.79L274.98 103.54C274.98 103.688 275.039 103.831 275.144 103.936C275.249 104.041 275.391 104.1 275.54 104.1Z" fill="black"/>
<path d="M287.07 102.69L288.53 104.49C288.569 104.533 288.593 104.587 288.597 104.645C288.602 104.703 288.587 104.761 288.554 104.809C288.522 104.858 288.475 104.894 288.419 104.912C288.364 104.93 288.305 104.929 288.25 104.91C287.403 104.663 286.863 104.06 286.63 103.1C286.579 102.892 286.459 102.707 286.291 102.575C286.122 102.442 285.914 102.37 285.7 102.37H283.56C283.451 102.371 283.346 102.409 283.263 102.479C283.181 102.548 283.127 102.644 283.11 102.75L282.75 104.92C282.73 105.004 282.681 105.078 282.611 105.129C282.541 105.18 282.455 105.204 282.369 105.197C282.283 105.19 282.202 105.152 282.142 105.09C282.081 105.028 282.045 104.946 282.04 104.86L282.03 97.2898C282.023 96.9232 282.203 96.7165 282.57 96.6698C284.79 96.3798 288.49 96.4398 288.63 99.3898C288.677 100.423 288.193 101.286 287.18 101.98C286.887 102.18 286.85 102.416 287.07 102.69ZM282.92 97.9298V101.03C282.92 101.184 282.981 101.331 283.09 101.44C283.199 101.549 283.346 101.61 283.5 101.61H285.24C285.571 101.61 285.899 101.56 286.205 101.462C286.511 101.364 286.789 101.22 287.023 101.039C287.257 100.858 287.442 100.643 287.569 100.406C287.695 100.17 287.76 99.916 287.76 99.6598V99.2998C287.759 98.7829 287.494 98.2872 287.021 97.9216C286.549 97.5559 285.908 97.3503 285.24 97.3498H283.5C283.346 97.3498 283.199 97.4109 283.09 97.5197C282.981 97.6285 282.92 97.776 282.92 97.9298Z" fill="black"/>
<path d="M300.41 100.75L302.91 96.7999C302.957 96.7364 303.026 96.6923 303.103 96.6763C303.18 96.6602 303.261 96.6733 303.329 96.713C303.397 96.7527 303.448 96.8162 303.472 96.8913C303.497 96.9664 303.492 97.0479 303.46 97.1199C302.32 99.3099 299.95 101.71 300.57 104.32C300.63 104.567 300.54 104.733 300.3 104.82L300.03 104.92C299.85 104.987 299.753 104.927 299.74 104.74C299.56 102.073 298.59 99.7099 296.83 97.6499C296.637 97.4233 296.387 97.3133 296.08 97.32L293.71 97.42C293.343 97.4333 293.16 97.6266 293.16 97.9999L293.15 104.5C293.15 104.609 293.107 104.713 293.03 104.79C292.953 104.867 292.849 104.91 292.74 104.91C292.653 104.91 292.567 104.913 292.48 104.92C292.293 104.927 292.2 104.833 292.2 104.64L292.28 97.9899C292.28 97.6299 292.1 97.4433 291.74 97.4299L289.63 97.38C289.587 97.38 289.545 97.3694 289.507 97.3492C289.47 97.329 289.438 97.2998 289.414 97.2642C289.39 97.2286 289.375 97.1876 289.371 97.145C289.367 97.1024 289.374 97.0594 289.39 97.0199C289.437 96.9133 289.48 96.8066 289.52 96.7C289.553 96.6266 289.607 96.5933 289.68 96.6L296.68 96.69C297.093 96.69 297.403 96.87 297.61 97.23L299.68 100.74C299.92 101.133 300.163 101.137 300.41 100.75Z" fill="black"/>
<path d="M309.23 99.4602L309.25 104.51C309.25 104.603 309.217 104.694 309.157 104.766C309.097 104.839 309.013 104.89 308.92 104.91C308.713 104.957 308.54 104.91 308.4 104.77C308.347 104.71 308.32 104.637 308.32 104.55L308.31 97.2402C308.313 97.1215 308.355 97.0071 308.429 96.914C308.502 96.821 308.604 96.7543 308.719 96.7239C308.834 96.6935 308.955 96.701 309.066 96.7455C309.176 96.7899 309.268 96.8687 309.33 96.9702L312.33 102.24C312.57 102.66 312.813 102.66 313.06 102.24L316.23 96.7802C316.278 96.6991 316.352 96.636 316.439 96.6007C316.526 96.5653 316.623 96.5597 316.714 96.5847C316.805 96.6097 316.885 96.664 316.942 96.739C316.999 96.8141 317.03 96.9059 317.03 97.0002L317.01 104.5C317.01 104.907 316.817 105.057 316.43 104.95C316.29 104.91 316.183 104.824 316.11 104.69C316.05 104.59 316.033 104.464 316.06 104.31C316.307 102.67 316.323 101.04 316.11 99.4203C316.043 98.8936 315.877 98.8569 315.61 99.3102L313.03 103.74C312.994 103.803 312.943 103.855 312.88 103.891C312.817 103.927 312.745 103.945 312.672 103.944C312.599 103.943 312.527 103.923 312.464 103.885C312.4 103.848 312.347 103.794 312.31 103.73L309.8 99.3102C309.765 99.2523 309.711 99.2069 309.648 99.1811C309.585 99.1553 309.515 99.1506 309.45 99.1678C309.385 99.1849 309.328 99.2228 309.288 99.2757C309.249 99.3286 309.228 99.3935 309.23 99.4602Z" fill="black"/>
<path d="M320.35 103.35L319.24 105.05C319.196 105.129 319.123 105.188 319.035 105.214C318.948 105.239 318.855 105.229 318.775 105.185C318.695 105.141 318.637 105.068 318.611 104.98C318.586 104.893 318.596 104.799 318.64 104.72L322.29 96.7798C322.334 96.6841 322.404 96.603 322.493 96.5461C322.582 96.4892 322.685 96.459 322.79 96.459C322.895 96.459 322.998 96.4892 323.087 96.5461C323.176 96.603 323.246 96.6841 323.29 96.7798L326.95 104.72C326.975 104.786 326.976 104.859 326.953 104.926C326.929 104.993 326.883 105.05 326.822 105.086C326.761 105.122 326.689 105.135 326.619 105.123C326.549 105.111 326.486 105.074 326.44 105.02L325.13 103.15C325.05 103.036 324.943 102.945 324.819 102.884C324.695 102.822 324.558 102.794 324.42 102.8L321.19 102.88C320.823 102.887 320.543 103.043 320.35 103.35ZM320.9 101.67C320.874 101.729 320.864 101.794 320.871 101.859C320.877 101.923 320.9 101.985 320.937 102.038C320.974 102.091 321.024 102.134 321.083 102.162C321.141 102.19 321.205 102.203 321.27 102.2L324.27 102.1C324.334 102.098 324.396 102.08 324.452 102.048C324.507 102.016 324.553 101.97 324.586 101.915C324.619 101.861 324.638 101.798 324.64 101.734C324.642 101.671 324.629 101.607 324.6 101.55L322.99 98.3098C322.958 98.2448 322.907 98.1903 322.845 98.153C322.783 98.1156 322.711 98.0968 322.639 98.0989C322.566 98.101 322.496 98.1239 322.436 98.1648C322.376 98.2058 322.328 98.263 322.3 98.3298L320.9 101.67Z" fill="black"/>
<path d="M329.25 98.9699V104.7C329.251 104.754 329.238 104.808 329.212 104.856C329.185 104.904 329.147 104.944 329.1 104.973C329.053 105.002 328.999 105.019 328.943 105.022C328.887 105.025 328.831 105.014 328.78 104.99L328.43 104.82C328.37 104.787 328.34 104.737 328.34 104.67L328.31 97.0599C328.308 96.9541 328.339 96.8503 328.4 96.7635C328.461 96.6768 328.547 96.6114 328.647 96.577C328.747 96.5425 328.856 96.5407 328.957 96.5718C329.058 96.6028 329.147 96.6652 329.21 96.7499L333.86 102.66C334.2 103.093 334.393 103.037 334.44 102.49C334.58 100.737 334.597 99.0099 334.49 97.3099C334.47 97.0565 334.513 96.8699 334.62 96.7499C334.68 96.6699 334.753 96.6165 334.84 96.5899C335.167 96.4765 335.33 96.5899 335.33 96.9299L335.4 104.27C335.405 104.398 335.368 104.523 335.296 104.629C335.224 104.734 335.12 104.814 335 104.856C334.879 104.899 334.748 104.902 334.626 104.864C334.504 104.827 334.397 104.752 334.32 104.65L329.73 98.8099C329.696 98.767 329.649 98.7358 329.596 98.7203C329.543 98.7048 329.487 98.7058 329.435 98.7232C329.382 98.7406 329.337 98.7736 329.304 98.8177C329.271 98.8618 329.252 98.9149 329.25 98.9699Z" fill="black"/>
<path d="M352.51 103.22L352.5 101.12C352.5 100.953 352.583 100.853 352.75 100.82C352.85 100.8 352.95 100.78 353.05 100.76C353.084 100.751 353.119 100.75 353.153 100.757C353.188 100.764 353.22 100.78 353.248 100.802C353.276 100.824 353.299 100.853 353.315 100.885C353.331 100.918 353.339 100.954 353.34 100.99L353.41 103.46C353.413 103.619 353.374 103.776 353.299 103.916C353.224 104.056 353.114 104.174 352.98 104.26C351.62 105.12 350.313 105.343 349.06 104.93C342.64 102.8 346.83 93.6799 353.13 97.4599C353.171 97.4839 353.205 97.5177 353.23 97.5581C353.255 97.5986 353.27 97.6445 353.273 97.6919C353.276 97.7393 353.267 97.7867 353.247 97.83C353.228 97.8732 353.198 97.911 353.16 97.9399L352.91 98.1299C352.863 98.1699 352.813 98.1733 352.76 98.1399C345.14 94.0399 344.93 106.79 352.06 103.89C352.194 103.833 352.308 103.739 352.388 103.62C352.468 103.501 352.51 103.362 352.51 103.22Z" fill="black"/>
<path d="M357.62 100.34C358.353 100.48 359.343 100.463 360.59 100.29C360.77 100.27 360.883 100.343 360.93 100.51C360.957 100.603 360.983 100.697 361.01 100.79C361.022 100.828 361.025 100.869 361.019 100.909C361.012 100.948 360.996 100.986 360.972 101.019C360.948 101.052 360.916 101.079 360.879 101.098C360.842 101.118 360.802 101.129 360.76 101.13L357.28 101.17C356.92 101.177 356.74 101.36 356.74 101.72V103.43C356.74 103.613 356.813 103.789 356.942 103.918C357.072 104.047 357.247 104.12 357.43 104.12L361.51 104.13C361.559 104.13 361.607 104.142 361.651 104.165C361.694 104.187 361.731 104.22 361.759 104.261C361.786 104.301 361.804 104.348 361.809 104.397C361.815 104.445 361.808 104.495 361.79 104.54C361.757 104.627 361.723 104.71 361.69 104.79C361.67 104.85 361.627 104.883 361.56 104.89L356.53 105.01C356.434 105.013 356.338 104.996 356.248 104.96C356.159 104.925 356.077 104.872 356.008 104.803C355.939 104.735 355.884 104.654 355.847 104.564C355.809 104.474 355.79 104.378 355.79 104.28L355.81 97.2801C355.817 96.8401 356.04 96.6201 356.48 96.6201L361.22 96.6601C361.507 96.6601 361.633 96.8035 361.6 97.0901C361.573 97.2968 361.463 97.3935 361.27 97.3801C359.783 97.3135 358.61 97.3268 357.75 97.4201C357.4 97.4602 357.076 97.6236 356.836 97.881C356.596 98.1384 356.456 98.473 356.44 98.8247C356.424 99.1764 356.534 99.5221 356.751 99.7999C356.967 100.078 357.275 100.269 357.62 100.34Z" fill="black"/>
<path d="M364.7 99.4599L364.78 104.5C364.786 104.787 364.646 104.93 364.36 104.93C364.266 104.93 364.173 104.91 364.08 104.87C363.906 104.797 363.82 104.663 363.82 104.47L363.83 97.0199C363.832 96.916 363.868 96.8155 363.932 96.7337C363.996 96.6518 364.084 96.5929 364.185 96.5659C364.285 96.5388 364.391 96.545 364.488 96.5836C364.584 96.6222 364.666 96.6911 364.72 96.7799L367.86 102.24C368.093 102.647 368.326 102.65 368.56 102.25L371.66 96.8999C371.711 96.8091 371.79 96.7378 371.886 96.6971C371.982 96.6564 372.088 96.6486 372.189 96.6749C372.289 96.7012 372.378 96.7601 372.442 96.8425C372.505 96.9248 372.54 97.0259 372.54 97.1299C372.533 99.4499 372.55 101.84 372.59 104.3C372.59 104.56 372.53 104.737 372.41 104.83C372.343 104.883 372.263 104.92 372.17 104.94C371.863 104.987 371.71 104.857 371.71 104.55V99.2999C371.71 98.6199 371.54 98.5732 371.2 99.1599L368.63 103.66C368.588 103.733 368.527 103.793 368.454 103.835C368.381 103.877 368.299 103.899 368.215 103.899C368.131 103.899 368.048 103.877 367.975 103.835C367.903 103.793 367.842 103.733 367.8 103.66L365.3 99.2999C365.265 99.2374 365.211 99.1883 365.145 99.1603C365.079 99.1323 365.006 99.1271 364.937 99.1455C364.868 99.1639 364.808 99.2048 364.764 99.2618C364.721 99.3188 364.699 99.3885 364.7 99.4599Z" fill="black"/>
<path d="M376.25 97.9499V99.6699C376.25 100.11 376.47 100.33 376.91 100.33L380.25 100.37C380.351 100.37 380.447 100.41 380.519 100.481C380.59 100.552 380.63 100.649 380.63 100.75C380.63 100.851 380.59 100.947 380.519 101.019C380.447 101.09 380.351 101.13 380.25 101.13L376.92 101.17C376.493 101.177 376.277 101.393 376.27 101.82L376.23 103.49C376.223 103.837 376.397 104.017 376.75 104.03L381.01 104.11C381.053 104.112 381.095 104.123 381.133 104.142C381.17 104.162 381.203 104.19 381.228 104.224C381.254 104.258 381.27 104.297 381.278 104.338C381.285 104.378 381.282 104.42 381.27 104.46C381.243 104.553 381.217 104.643 381.19 104.73C381.163 104.85 381.087 104.91 380.96 104.91L375.98 104.88C375.553 104.88 375.34 104.663 375.34 104.23V97.2599C375.34 97.1745 375.357 97.09 375.389 97.0111C375.422 96.9323 375.47 96.8606 375.53 96.8003C375.591 96.7399 375.662 96.692 375.741 96.6594C375.82 96.6267 375.904 96.6099 375.99 96.6099L380.89 96.6399C380.927 96.6392 380.964 96.6476 380.998 96.6645C381.031 96.6814 381.06 96.7062 381.082 96.7367C381.103 96.7673 381.117 96.8027 381.122 96.8398C381.127 96.877 381.123 96.9148 381.11 96.9499C381.07 97.0499 381.033 97.1465 381 97.2399C380.953 97.3465 380.873 97.3999 380.76 97.3999L376.8 97.3899C376.433 97.3899 376.25 97.5766 376.25 97.9499Z" fill="black"/>
<path d="M395.62 98.0401L395.69 104.58C395.69 104.648 395.665 104.714 395.618 104.764C395.572 104.814 395.508 104.845 395.44 104.85L395.04 104.88C394.834 104.893 394.73 104.8 394.73 104.6L394.75 97.9901C394.75 97.6501 394.58 97.4701 394.24 97.4501L392.05 97.3501C391.957 97.3501 391.868 97.3132 391.803 97.2476C391.737 97.182 391.7 97.0929 391.7 97.0001C391.7 96.9073 391.737 96.8182 391.803 96.7526C391.868 96.687 391.957 96.6501 392.05 96.6501C394.177 96.5834 396.17 96.5834 398.03 96.6501C398.23 96.6568 398.367 96.7101 398.44 96.8101C398.5 96.8901 398.53 96.9834 398.53 97.0901C398.524 97.2768 398.43 97.3701 398.25 97.3701L396.21 97.4201C395.81 97.4335 395.614 97.6401 395.62 98.0401Z" fill="black"/>
<path d="M338.49 103.29L337.73 104.82C337.68 104.912 337.597 104.981 337.497 105.013C337.398 105.046 337.29 105.039 337.195 104.994C337.101 104.949 337.027 104.87 336.989 104.773C336.951 104.675 336.951 104.567 336.99 104.47L340.44 96.9402C340.492 96.8276 340.575 96.7322 340.68 96.6653C340.785 96.5985 340.906 96.563 341.03 96.563C341.154 96.563 341.276 96.5985 341.38 96.6653C341.485 96.7322 341.568 96.8276 341.62 96.9402L345.17 104.68C345.214 104.765 345.222 104.864 345.193 104.955C345.164 105.046 345.1 105.121 345.015 105.165C344.93 105.209 344.832 105.217 344.741 105.188C344.65 105.159 344.574 105.095 344.53 105.01L343.41 103.11C343.356 103.017 343.278 102.94 343.183 102.887C343.088 102.834 342.98 102.808 342.87 102.81L339.2 102.85C338.874 102.857 338.637 103.004 338.49 103.29ZM341.33 98.2202C341.304 98.1628 341.262 98.1141 341.208 98.08C341.155 98.0458 341.093 98.0277 341.03 98.0277C340.967 98.0277 340.905 98.0458 340.852 98.08C340.799 98.1141 340.757 98.1628 340.73 98.2202L339.2 101.66C339.179 101.71 339.17 101.765 339.175 101.819C339.179 101.873 339.197 101.925 339.227 101.97C339.257 102.016 339.297 102.053 339.345 102.08C339.393 102.106 339.446 102.12 339.5 102.12L342.54 102.09C342.595 102.09 342.648 102.076 342.696 102.05C342.743 102.023 342.784 101.986 342.813 101.94C342.843 101.895 342.861 101.843 342.866 101.789C342.87 101.735 342.862 101.68 342.84 101.63L341.33 98.2202Z" fill="black"/>
<path d="M384.26 98.9498C384.233 100.696 384.237 102.436 384.27 104.17C384.277 104.463 384.213 104.666 384.08 104.78C384.007 104.846 383.917 104.883 383.81 104.89C383.483 104.903 383.32 104.743 383.32 104.41V97.1898C383.317 97.0756 383.351 96.9634 383.415 96.8694C383.48 96.7754 383.573 96.7044 383.681 96.6666C383.789 96.6288 383.906 96.6262 384.015 96.6591C384.125 96.6921 384.221 96.7588 384.29 96.8498L388.87 102.68C388.915 102.739 388.977 102.783 389.048 102.805C389.119 102.826 389.195 102.825 389.266 102.8C389.336 102.776 389.396 102.73 389.438 102.668C389.481 102.607 389.502 102.534 389.5 102.46L389.49 97.0198C389.489 96.9622 389.503 96.9053 389.529 96.8541C389.556 96.8029 389.594 96.759 389.642 96.7263C389.689 96.6937 389.744 96.6733 389.801 96.6669C389.859 96.6605 389.916 96.6684 389.97 96.6898C390.057 96.7231 390.147 96.7598 390.24 96.7998C390.307 96.8265 390.34 96.8765 390.34 96.9498L390.41 104.48C390.41 104.592 390.376 104.701 390.311 104.792C390.247 104.883 390.156 104.952 390.05 104.989C389.945 105.027 389.831 105.03 389.723 105C389.616 104.97 389.52 104.907 389.45 104.82L384.72 98.7998C384.427 98.4198 384.273 98.4698 384.26 98.9498Z" fill="black"/>
</svg>
